<svg xmlns="http://www.w3.org/2000/svg" viewBox="0 0 512 512">
  <defs>
    <linearGradient id="bg" x1="0" y1="0" x2="0" y2="1">
      <stop offset="0" stop-color="#181317"/>
      <stop offset="1" stop-color="#0b090a"/>
    </linearGradient>
    <linearGradient id="bronze" x1="0" y1="0" x2="0" y2="1">
      <stop offset="0" stop-color="#e8c178"/>
      <stop offset="0.55" stop-color="#c79a4e"/>
      <stop offset="1" stop-color="#8f6a2e"/>
    </linearGradient>
  </defs>

  <!-- obsidian field -->
  <rect x="16" y="16" width="480" height="480" rx="112" fill="url(#bg)"/>
  <rect x="16" y="16" width="480" height="480" rx="112" fill="none" stroke="#c79a4e" stroke-opacity="0.28" stroke-width="6"/>

  <!-- the helm — the proven geometry, stroked in bronze gradient -->
  <g transform="translate(94,68) scale(0.81)" fill="none" stroke="url(#bronze)" stroke-width="17" stroke-linecap="round" stroke-linejoin="round">
    <path d="M200 28 C 116 28 64 96 60 178 C 57 236 70 284 78 330 C 86 376 88 420 84 470 C 120 448 142 436 152 410 L 162 348 C 165 330 162 318 150 306 C 138 292 132 272 132 252 L 132 216"/>
    <path d="M200 28 C 284 28 336 96 340 178 C 343 236 330 284 322 330 C 314 376 312 420 316 470 C 280 448 258 436 248 410 L 238 348 C 235 330 238 318 250 306 C 262 292 268 272 268 252 L 268 216"/>
    <path d="M132 216 C 152 204 172 198 188 198 L 188 300 C 188 318 192 330 200 340 C 208 330 212 318 212 300 L 212 198 C 228 198 248 204 268 216"/>
    <path d="M142 238 C 154 230 168 226 180 228 C 176 244 166 254 150 256 C 144 252 142 246 142 238 Z" fill="url(#bronze)" stroke="none"/>
    <path d="M258 238 C 246 230 232 226 220 228 C 224 244 234 254 250 256 C 256 252 258 246 258 238 Z" fill="url(#bronze)" stroke="none"/>
    <path d="M160 40 C 172 24 188 14 200 12 C 212 14 228 24 240 40"/>
  </g>
</svg>
